<?xml version="1.0" encoding="utf-8"?>
<!-- Generator: Adobe Illustrator 27.5.0, SVG Export Plug-In . SVG Version: 6.00 Build 0)  -->
<svg version="1.1" xmlns="http://www.w3.org/2000/svg" xmlns:xlink="http://www.w3.org/1999/xlink" x="0px" y="0px"
	 viewBox="0 0 512 512" style="enable-background:new 0 0 512 512;" xml:space="preserve">
<style type="text/css">
	.st0{fill:#4845FF;}
	.st1{fill:none;stroke:#4845FF;stroke-width:10;stroke-miterlimit:10;}
	.st2{fill:none;stroke:#FFFFFF;stroke-width:10;stroke-linecap:round;stroke-linejoin:round;stroke-miterlimit:10;}
	.st3{fill:none;stroke:#FFFFFF;stroke-width:8;stroke-linecap:round;stroke-linejoin:round;stroke-miterlimit:10;}
	.st4{fill:#4845FF;stroke:#FFFFFF;stroke-width:8;stroke-linecap:round;stroke-linejoin:round;stroke-miterlimit:10;}
	.st5{fill:#4845FF;stroke:#FFFFFF;stroke-width:10;stroke-linecap:round;stroke-linejoin:round;stroke-miterlimit:10;}
	.st6{fill:#3434B7;}
	.st7{fill:#33CC99;}
	.st8{fill:#FFFFFF;}
	.st9{fill:none;stroke:#000000;stroke-width:12;stroke-miterlimit:10;}
	.st10{fill:#33CC99;stroke:#FFFFFF;stroke-width:10;stroke-linecap:round;stroke-linejoin:round;stroke-miterlimit:10;}
	.st11{fill:none;stroke:#33CC99;stroke-width:8;stroke-linecap:round;stroke-linejoin:round;stroke-miterlimit:10;}
</style>
<g id="shape">
</g>
<g id="Layer_2">
	<circle class="st0" cx="256" cy="260" r="237"/>
	<g>
		<path class="st2" d="M387.9,387H129.8c-9.6,0-17.4-7.8-17.4-17.4V173.9c0-9.6,7.8-17.4,17.4-17.4h258.1c9.6,0,17.4,7.8,17.4,17.4
			v195.7C405.2,379.2,397.5,387,387.9,387z"/>
		<path class="st3" d="M150.3,178.5L150.3,178.5c-5.2,0-9.4-4.2-9.4-9.4v-24.3c0-5.2,4.2-9.4,9.4-9.4h0c5.2,0,9.4,4.2,9.4,9.4v24.3"
			/>
		<path class="st3" d="M194.3,178.5L194.3,178.5c-5.2,0-9.4-4.2-9.4-9.4v-24.3c0-5.2,4.2-9.4,9.4-9.4h0c5.2,0,9.4,4.2,9.4,9.4v24.3"
			/>
		<path class="st3" d="M238.2,178.5L238.2,178.5c-5.2,0-9.4-4.2-9.4-9.4v-24.3c0-5.2,4.2-9.4,9.4-9.4h0c5.2,0,9.4,4.2,9.4,9.4v24.3"
			/>
		<path class="st3" d="M282.1,178.5L282.1,178.5c-5.2,0-9.4-4.2-9.4-9.4v-24.3c0-5.2,4.2-9.4,9.4-9.4h0c5.2,0,9.4,4.2,9.4,9.4v24.3"
			/>
		<path class="st3" d="M326.1,178.5L326.1,178.5c-5.2,0-9.4-4.2-9.4-9.4v-24.3c0-5.2,4.2-9.4,9.4-9.4l0,0c5.2,0,9.4,4.2,9.4,9.4
			v24.3"/>
		<path class="st3" d="M370,178.5L370,178.5c-5.2,0-9.4-4.2-9.4-9.4v-24.3c0-5.2,4.2-9.4,9.4-9.4l0,0c5.2,0,9.4,4.2,9.4,9.4v24.3"/>
		<rect x="207" y="203" class="st3" width="33.9" height="33.9"/>
		<rect x="268.6" y="203" class="st3" width="33.9" height="33.9"/>
		<rect x="330.2" y="203" class="st3" width="33.9" height="33.9"/>
		<rect x="145.4" y="262" class="st3" width="33.9" height="33.9"/>
		<rect x="207" y="262" class="st3" width="33.9" height="33.9"/>
		<rect x="330.2" y="262" class="st3" width="33.9" height="33.9"/>
		<rect x="145.4" y="319.1" class="st3" width="33.9" height="33.9"/>
		<rect x="207" y="319.1" class="st3" width="33.9" height="33.9"/>
		<rect x="268.6" y="319.1" class="st3" width="33.9" height="33.9"/>
		<rect x="330.2" y="319.1" class="st4" width="33.9" height="33.9"/>
		<g>
			<circle class="st10" cx="361.1" cy="355.3" r="64.7"/>
			<g>
				<line class="st10" x1="361.5" y1="317.3" x2="361.5" y2="364"/>
				<line class="st10" x1="362.2" y1="365.5" x2="378.2" y2="386.6"/>
			</g>
		</g>
		<g>
			<line class="st11" x1="148.1" y1="205.7" x2="176.7" y2="234.3"/>
			<line class="st11" x1="148.1" y1="234.3" x2="176.7" y2="205.7"/>
		</g>
		<g>
			<line class="st11" x1="273.1" y1="267.3" x2="301.7" y2="295.9"/>
			<line class="st11" x1="273.1" y1="295.9" x2="301.7" y2="267.3"/>
		</g>
	</g>
</g>
</svg>
