<svg xmlns="http://www.w3.org/2000/svg" width="202.24" height="35" viewBox="0 0 202.24 35"><rect class="svg__rect" x="0" y="0" width="115.31" height="35" fill="#3434B7"/><rect class="svg__rect" x="113.31" y="0" width="88.93" height="35" fill="#4845FF"/><path class="svg__text" d="M15.69 22L14.22 22L14.22 13.47L16.14 13.47L18.60 20.01L21.06 13.47L22.97 13.47L22.97 22L21.49 22L21.49 19.19L21.64 15.43L19.12 22L18.06 22L15.55 15.43L15.69 19.19L15.69 22ZM28.49 22L26.95 22L30.17 13.47L31.50 13.47L34.73 22L33.18 22L32.49 20.01L29.18 20.01L28.49 22ZM30.83 15.28L29.60 18.82L32.07 18.82L30.83 15.28ZM41.14 22L38.69 22L38.69 13.47L41.21 13.47Q42.34 13.47 43.21 13.97Q44.09 14.48 44.57 15.40Q45.05 16.33 45.05 17.52L45.05 17.52L45.05 17.95Q45.05 19.16 44.57 20.08Q44.08 21.00 43.19 21.50Q42.30 22 41.14 22L41.14 22ZM40.17 14.66L40.17 20.82L41.14 20.82Q42.30 20.82 42.93 20.09Q43.55 19.36 43.56 17.99L43.56 17.99L43.56 17.52Q43.56 16.13 42.96 15.40Q42.35 14.66 41.21 14.66L41.21 14.66L40.17 14.66ZM55.09 22L49.51 22L49.51 13.47L55.05 13.47L55.05 14.66L51.00 14.66L51.00 17.02L54.50 17.02L54.50 18.19L51.00 18.19L51.00 20.82L55.09 20.82L55.09 22ZM66.65 22L64.68 13.47L66.15 13.47L67.47 19.88L69.10 13.47L70.34 13.47L71.96 19.89L73.27 13.47L74.74 13.47L72.77 22L71.35 22L69.73 15.77L68.07 22L66.65 22ZM80.38 22L78.90 22L78.90 13.47L80.38 13.47L80.38 22ZM86.87 14.66L84.23 14.66L84.23 13.47L91.00 13.47L91.00 14.66L88.34 14.66L88.34 22L86.87 22L86.87 14.66ZM96.24 22L94.75 22L94.75 13.47L96.24 13.47L96.24 17.02L100.05 17.02L100.05 13.47L101.53 13.47L101.53 22L100.05 22L100.05 18.21L96.24 18.21L96.24 22Z" fill="#FFFFFF"/><path class="svg__text" d="M126.91 21.24L126.91 21.24L127.69 19.49Q128.25 19.86 129.00 20.09Q129.74 20.32 130.46 20.32L130.46 20.32Q131.83 20.32 131.83 19.64L131.83 19.64Q131.83 19.28 131.44 19.11Q131.05 18.93 130.19 18.74L130.19 18.74Q129.24 18.53 128.60 18.30Q127.97 18.06 127.51 17.55Q127.06 17.03 127.06 16.16L127.06 16.16Q127.06 15.39 127.48 14.77Q127.90 14.15 128.73 13.79Q129.57 13.43 130.77 13.43L130.77 13.43Q131.60 13.43 132.41 13.62Q133.21 13.80 133.83 14.17L133.83 14.17L133.09 15.93Q131.89 15.28 130.76 15.28L130.76 15.28Q130.05 15.28 129.73 15.49Q129.41 15.70 129.41 16.04L129.41 16.04Q129.41 16.37 129.79 16.54Q130.18 16.71 131.03 16.89L131.03 16.89Q131.99 17.10 132.62 17.33Q133.25 17.56 133.71 18.07Q134.17 18.58 134.17 19.46L134.17 19.46Q134.17 20.21 133.75 20.83Q133.33 21.44 132.49 21.80Q131.65 22.17 130.45 22.17L130.45 22.17Q129.43 22.17 128.47 21.92Q127.51 21.67 126.91 21.24ZM140.54 15.48L137.96 15.48L137.96 13.60L145.48 13.60L145.48 15.48L142.91 15.48L142.91 22L140.54 22L140.54 15.48ZM152.23 22L149.85 22L149.85 13.60L153.70 13.60Q154.84 13.60 155.68 13.98Q156.51 14.35 156.97 15.06Q157.43 15.76 157.43 16.71L157.43 16.71Q157.43 17.62 157.00 18.30Q156.57 18.98 155.78 19.36L155.78 19.36L157.59 22L155.05 22L153.53 19.77L152.23 19.77L152.23 22ZM152.23 15.47L152.23 17.93L153.55 17.93Q154.28 17.93 154.65 17.61Q155.03 17.29 155.03 16.71L155.03 16.71Q155.03 16.12 154.65 15.79Q154.28 15.47 153.55 15.47L153.55 15.47L152.23 15.47ZM163.63 22L161.21 22L164.92 13.60L167.26 13.60L170.97 22L168.51 22L167.85 20.37L164.29 20.37L163.63 22ZM166.07 15.93L164.99 18.61L167.15 18.61L166.07 15.93ZM177.51 22L175.13 22L175.13 13.60L178.97 13.60Q180.11 13.60 180.95 13.98Q181.79 14.35 182.25 15.06Q182.70 15.76 182.70 16.71L182.70 16.71Q182.70 17.66 182.25 18.35Q181.79 19.05 180.95 19.42Q180.11 19.80 178.97 19.80L178.97 19.80L177.51 19.80L177.51 22ZM177.51 15.47L177.51 17.93L178.83 17.93Q179.56 17.93 179.93 17.61Q180.30 17.29 180.30 16.71L180.30 16.71Q180.30 16.12 179.93 15.80Q179.56 15.47 178.83 15.47L178.83 15.47L177.51 15.47ZM189.84 22L187.46 22L187.46 13.60L189.84 13.60L189.84 22Z" fill="#FFFFFF" x="126.31"/></svg>