<svg xmlns="http://www.w3.org/2000/svg" width="193.26" height="35" viewBox="0 0 193.26 35"><rect class="svg__rect" x="0" y="0" width="106.33" height="35" fill="#271FE0"/><rect class="svg__rect" x="104.33" y="0" width="88.93" height="35" fill="#4945FF"/><path class="svg__text" d="M15.69 22L14.22 22L14.22 13.47L16.14 13.47L18.60 20.01L21.06 13.47L22.97 13.47L22.97 22L21.49 22L21.49 19.19L21.64 15.43L19.12 22L18.06 22L15.55 15.43L15.69 19.19L15.69 22ZM28.49 22L26.95 22L30.17 13.47L31.50 13.47L34.73 22L33.18 22L32.49 20.01L29.18 20.01L28.49 22ZM30.83 15.28L29.60 18.82L32.07 18.82L30.83 15.28ZM41.14 22L38.69 22L38.69 13.47L41.21 13.47Q42.34 13.47 43.21 13.97Q44.09 14.48 44.57 15.40Q45.05 16.33 45.05 17.52L45.05 17.52L45.05 17.95Q45.05 19.16 44.57 20.08Q44.08 21.00 43.19 21.50Q42.30 22 41.14 22L41.14 22ZM40.17 14.66L40.17 20.82L41.14 20.82Q42.30 20.82 42.93 20.09Q43.55 19.36 43.56 17.99L43.56 17.99L43.56 17.52Q43.56 16.13 42.96 15.40Q42.35 14.66 41.21 14.66L41.21 14.66L40.17 14.66ZM55.09 22L49.51 22L49.51 13.47L55.05 13.47L55.05 14.66L51.00 14.66L51.00 17.02L54.50 17.02L54.50 18.19L51.00 18.19L51.00 20.82L55.09 20.82L55.09 22ZM66.75 22L65.26 22L65.26 13.47L70.68 13.47L70.68 14.66L66.75 14.66L66.75 17.20L70.18 17.20L70.18 18.38L66.75 18.38L66.75 22ZM74.57 18.00L74.57 18.00L74.57 17.52Q74.57 16.28 75.02 15.32Q75.46 14.37 76.27 13.86Q77.07 13.35 78.11 13.35Q79.16 13.35 79.96 13.85Q80.77 14.35 81.21 15.29Q81.65 16.23 81.65 17.48L81.65 17.48L81.65 17.96Q81.65 19.21 81.22 20.16Q80.79 21.10 79.98 21.61Q79.17 22.12 78.13 22.12L78.13 22.12Q77.09 22.12 76.28 21.61Q75.47 21.10 75.02 20.17Q74.58 19.23 74.57 18.00ZM76.06 17.46L76.06 17.96Q76.06 19.36 76.60 20.13Q77.15 20.90 78.13 20.90L78.13 20.90Q79.11 20.90 79.64 20.15Q80.17 19.40 80.17 17.96L80.17 17.96L80.17 17.51Q80.17 16.09 79.63 15.34Q79.10 14.58 78.11 14.58L78.11 14.58Q77.15 14.58 76.61 15.33Q76.07 16.09 76.06 17.46L76.06 17.46ZM87.60 22L86.12 22L86.12 13.47L89.12 13.47Q90.59 13.47 91.40 14.13Q92.20 14.79 92.20 16.05L92.20 16.05Q92.20 16.90 91.79 17.48Q91.37 18.06 90.64 18.37L90.64 18.37L92.55 21.92L92.55 22L90.96 22L89.25 18.71L87.60 18.71L87.60 22ZM87.60 14.66L87.60 17.52L89.12 17.52Q89.87 17.52 90.30 17.15Q90.72 16.77 90.72 16.11L90.72 16.11Q90.72 15.43 90.33 15.05Q89.94 14.68 89.16 14.66L89.16 14.66L87.60 14.66Z" fill="#FFFFFF"/><path class="svg__text" d="M117.93 21.24L117.93 21.24L118.71 19.49Q119.27 19.86 120.02 20.09Q120.76 20.32 121.48 20.32L121.48 20.32Q122.85 20.32 122.85 19.64L122.85 19.64Q122.85 19.28 122.46 19.11Q122.07 18.93 121.21 18.74L121.21 18.74Q120.26 18.53 119.62 18.30Q118.99 18.06 118.53 17.55Q118.08 17.03 118.08 16.16L118.08 16.16Q118.08 15.39 118.50 14.77Q118.92 14.15 119.75 13.79Q120.59 13.43 121.79 13.43L121.79 13.43Q122.62 13.43 123.43 13.62Q124.23 13.80 124.85 14.17L124.85 14.17L124.11 15.93Q122.91 15.28 121.78 15.28L121.78 15.28Q121.07 15.28 120.75 15.49Q120.43 15.70 120.43 16.04L120.43 16.04Q120.43 16.37 120.81 16.54Q121.20 16.71 122.05 16.89L122.05 16.89Q123.01 17.10 123.64 17.33Q124.27 17.56 124.73 18.07Q125.19 18.58 125.19 19.46L125.19 19.46Q125.19 20.21 124.77 20.83Q124.35 21.44 123.51 21.80Q122.67 22.17 121.47 22.17L121.47 22.17Q120.45 22.17 119.49 21.92Q118.53 21.67 117.93 21.24ZM131.56 15.48L128.98 15.48L128.98 13.60L136.50 13.60L136.50 15.48L133.93 15.48L133.93 22L131.56 22L131.56 15.48ZM143.25 22L140.87 22L140.87 13.60L144.72 13.60Q145.86 13.60 146.70 13.98Q147.53 14.35 147.99 15.06Q148.45 15.76 148.45 16.71L148.45 16.71Q148.45 17.62 148.02 18.30Q147.59 18.98 146.80 19.36L146.80 19.36L148.61 22L146.07 22L144.55 19.77L143.25 19.77L143.25 22ZM143.25 15.47L143.25 17.93L144.57 17.93Q145.30 17.93 145.67 17.61Q146.05 17.29 146.05 16.71L146.05 16.71Q146.05 16.12 145.67 15.79Q145.30 15.47 144.57 15.47L144.57 15.47L143.25 15.47ZM154.65 22L152.23 22L155.94 13.60L158.28 13.60L161.99 22L159.53 22L158.87 20.37L155.31 20.37L154.65 22ZM157.09 15.93L156.01 18.61L158.17 18.61L157.09 15.93ZM168.53 22L166.15 22L166.15 13.60L169.99 13.60Q171.13 13.60 171.97 13.98Q172.81 14.35 173.27 15.06Q173.72 15.76 173.72 16.71L173.72 16.71Q173.72 17.66 173.27 18.35Q172.81 19.05 171.97 19.42Q171.13 19.80 169.99 19.80L169.99 19.80L168.53 19.80L168.53 22ZM168.53 15.47L168.53 17.93L169.85 17.93Q170.58 17.93 170.95 17.61Q171.32 17.29 171.32 16.71L171.32 16.71Q171.32 16.12 170.95 15.80Q170.58 15.47 169.85 15.47L169.85 15.47L168.53 15.47ZM180.86 22L178.48 22L178.48 13.60L180.86 13.60L180.86 22Z" fill="#FFFFFF" x="117.33"/></svg>